<svg version="1" xmlns="http://www.w3.org/2000/svg" width="400" height="400" viewBox="0 0 300.000000 300.000000"><path d="M143 3.6c-16.6 1.6-35.2 7.4-48.4 15-6.8 4-8 4.4-8.8 3-1.4-2.5-8.3-5.6-12.4-5.6-2.2 0-5.5 1-7.9 2.5-3.5 2-5.1 4.1-8.8 11.3-4.4 8.4-4.8 8.9-10 11-6.2 2.6-13.1 8.1-15.2 12.3-3.4 6.5-1 15.2 5.3 19.9l3 2.2-3.9 8.3c-9.1 19.3-12.2 49.2-7.5 71.5.8 3.6 1.1 6.6.7 6.8-4.5 1.8-11.8 7.1-14.1 10.4-3.8 5.3-4.1 11.8-.7 16.9 2.4 3.6 6.3 6.1 23.6 15.2l11.1 5.8 6.5 12.9 6.5 13v29.5l8.7 8.6c13.3 13 21 17.6 34.6 20.5 9.6 2 89.1 2 98.6 0 13.2-2.9 28.5-12.6 38.6-24.4l4.5-5.4v-33.9l-2.9-2.5-3-2.5 6.7-6.7c15.7-15.7 28.1-40.1 32.9-64.1 2.4-12.2 2.4-36.7 0-48.1C268 47.7 218.7 5.7 159.5 3.6c-6.6-.2-14-.2-16.5 0z"/></svg>